{"asset":{"generator":"Khronos glTF Blender I/O v1.7.33","version":"2.0"},"extensionsUsed":["KHR_materials_clearcoat"],"scene":0,"scenes":[{"extras":{"paper_model":{},"matlib":{"lib_index":0,"filter":0,"cat_index":-1,"categories":[{"name":"Glass"},{"name":"Misc"},{"name":"Organic"},{"name":"Ceramic"},{"name":"Paint"},{"name":"Earth"}],"all_materials":[{"name":"1970_tiles","category":"Ceramic"},{"name":"Anodized"},{"name":"Basic Glass","category":"Glass"},{"name":"Blaster Bolt (Blue)","category":"Misc"},{"name":"Brushed Metal"},{"name":"Building","category":"Misc"},{"name":"Car Paint","category":"Paint"},{"name":"Ceramic","category":"Ceramic"},{"name":"Ceramic Polished","category":"Ceramic"},{"name":"Chocolate Swirl","category":"Organic"},{"name":"Coated Glossy","category":"Paint"},{"name":"Composite Rubber"},{"name":"Cranberry Juice","category":"Glass"},{"name":"Crushed Velvet Eevee"},{"name":"Double  Sided"},{"name":"Facade_Glass","category":"Glass"},{"name":"Fake Glass","category":"Glass"},{"name":"Fake Shading","category":"Misc"},{"name":"Flaky Tangelo","category":"Paint"},{"name":"Fresnel","category":"Misc"},{"name":"Galvanized Steel"},{"name":"Glow Glass"},{"name":"High Gloss Plastic","category":"Paint"},{"name":"Jewelry"},{"name":"Lemon","category":"Organic"},{"name":"Material.003"},{"name":"Metalic Paint","category":"Paint"},{"name":"Metallic Paint Clean","category":"Paint"},{"name":"Molten","category":"Earth"},{"name":"Polished Walnut"},{"name":"Soap Bubble","category":"Glass"},{"name":"Stars","category":"Earth"},{"name":"Wire Musgrave","category":"Misc"},{"name":"WoodP"},{"name":"wood"},{"name":"wood boards"}],"materials":[{"name":"1970_tiles","category":"Ceramic"},{"name":"Anodized","category":""},{"name":"Basic Glass","category":"Glass"},{"name":"Blaster Bolt (Blue)","category":"Misc"},{"name":"Brushed Metal","category":""},{"name":"Building","category":"Misc"},{"name":"Car Paint","category":"Paint"},{"name":"Ceramic","category":"Ceramic"},{"name":"Ceramic Polished","category":"Ceramic"},{"name":"Chocolate Swirl","category":"Organic"},{"name":"Coated Glossy","category":"Paint"},{"name":"Composite Rubber","category":""},{"name":"Cranberry Juice","category":"Glass"},{"name":"Crushed Velvet Eevee","category":""},{"name":"Double  Sided","category":""},{"name":"Facade_Glass","category":"Glass"},{"name":"Fake Glass","category":"Glass"},{"name":"Fake Shading","category":"Misc"},{"name":"Flaky Tangelo","category":"Paint"},{"name":"Fresnel","category":"Misc"},{"name":"Galvanized Steel","category":""},{"name":"Glow Glass","category":""},{"name":"High Gloss Plastic","category":"Paint"},{"name":"Jewelry","category":""},{"name":"Lemon","category":"Organic"},{"name":"Material.003","category":""},{"name":"Metalic Paint","category":"Paint"},{"name":"Metallic Paint Clean","category":"Paint"},{"name":"Molten","category":"Earth"},{"name":"Polished Walnut","category":""},{"name":"Soap Bubble","category":"Glass"},{"name":"Stars","category":"Earth"},{"name":"Wire Musgrave","category":"Misc"},{"name":"WoodP","category":""},{"name":"wood","category":""},{"name":"wood boards","category":""}],"mat_index":10,"last_selected":"Marienkirche Kopie.001"},"sketcher":{"entities":{},"constraints":{},"version":[0,22,5]}},"name":"Scene","nodes":[0]}],"nodes":[{"extras":{"ant_landscape":{},"shape_generator_collection":{}},"mesh":0,"name":"Marienkirche Kopie.002","rotation":[-0.6561391949653625,-0.36731067299842834,0.3260522484779358,0.5729346871376038],"scale":[6.373074054718018,6.373079299926758,6.3730788230896],"translation":[0.016713976860046387,0.1706981658935547,6.754432678222656]}],"materials":[{"doubleSided":true,"extensions":{"KHR_materials_clearcoat":{"clearcoatFactor":0.30735933780670166,"clearcoatRoughnessFactor":0.48177996277809143}},"name":"Material.004","pbrMetallicRoughness":{"baseColorTexture":{"index":0},"metallicFactor":0,"roughnessFactor":0.5173160433769226}}],"meshes":[{"extras":{"paper_island_list":[{"faces":[{"id":40},{"id":43},{"id":42},{"id":169},{"id":38},{"id":41},{"id":39},{"id":44},{"id":67},{"id":61},{"id":32},{"id":55},{"id":160},{"id":36},{"id":30},{"id":34},{"id":154},{"id":139},{"id":131},{"id":156},{"id":123},{"id":158},{"id":147},{"id":152},{"id":151},{"id":146},{"id":143},{"id":122},{"id":127},{"id":135},{"id":138},{"id":130},{"id":121},{"id":137},{"id":142},{"id":129},{"id":134},{"id":126},{"id":145},{"id":150},{"id":149},{"id":144},{"id":125},{"id":141},{"id":133},{"id":136},{"id":128},{"id":120},{"id":117},{"id":124},{"id":115},{"id":119},{"id":132},{"id":140},{"id":148},{"id":29},{"id":165},{"id":163},{"id":161},{"id":1},{"id":166},{"id":167},{"id":162},{"id":168},{"id":164}],"label":"Island 1","abbreviation":"I1","auto_label":1,"auto_abbrev":1,"name":"[I1] Island 1 (65 faces)"},{"faces":[{"id":24},{"id":33},{"id":35},{"id":26},{"id":22},{"id":31},{"id":28},{"id":49},{"id":94},{"id":88},{"id":98},{"id":92},{"id":106},{"id":104},{"id":110},{"id":100},{"id":79},{"id":80},{"id":9},{"id":2},{"id":102},{"id":58},{"id":101},{"id":86},{"id":109},{"id":20},{"id":13},{"id":114},{"id":68},{"id":111},{"id":74},{"id":91},{"id":19},{"id":12},{"id":113},{"id":50},{"id":93},{"id":69},{"id":59},{"id":51},{"id":60},{"id":16},{"id":73},{"id":21},{"id":85},{"id":27},{"id":71},{"id":72},{"id":87},{"id":112},{"id":90},{"id":46},{"id":89},{"id":47},{"id":48},{"id":70},{"id":37},{"id":153},{"id":159},{"id":3},{"id":5},{"id":157},{"id":6},{"id":155},{"id":45}],"label":"Island 2","abbreviation":"I2","auto_label":1,"auto_abbrev":1,"name":"[I2] Island 2 (65 faces)"},{"faces":[{"id":82},{"id":103},{"id":17},{"id":10},{"id":116},{"id":62},{"id":105},{"id":63},{"id":81},{"id":25},{"id":83},{"id":84},{"id":11},{"id":4},{"id":108},{"id":64},{"id":107},{"id":65},{"id":66},{"id":18}],"label":"Island 3","abbreviation":"I3","auto_label":1,"auto_abbrev":1,"name":"[I3] Island 3 (20 faces)"},{"faces":[{"id":75},{"id":76},{"id":7},{"id":0},{"id":96},{"id":52},{"id":95},{"id":53},{"id":54},{"id":14},{"id":78},{"id":97},{"id":15},{"id":8},{"id":118},{"id":56},{"id":99},{"id":57},{"id":77},{"id":23}],"label":"Island 4","abbreviation":"I4","auto_label":1,"auto_abbrev":1,"name":"[I4] Island 4 (20 faces)"}],"paper_island_index":-1},"name":"Fläche.002","primitives":[{"attributes":{"POSITION":0,"NORMAL":1,"TEXCOORD_0":2},"indices":3,"material":0}]}],"textures":[{"sampler":0,"source":0}],"images":[{"mimeType":"image/jpeg","name":"nadelsperrholz-online-kaufen-ganze-platten","uri":"data:application/octet-stream;base64,"}],"accessors":[{"bufferView":0,"componentType":5126,"count":1852,"max":[1.015836477279663,1.0180895328521729,7.505040645599365],"min":[-1.0168771743774414,-1.0131661891937256,-4.0845746994018555],"type":"VEC3"},{"bufferView":1,"componentType":5126,"count":1852,"type":"VEC3"},{"bufferView":2,"componentType":5126,"count":1852,"type":"VEC2"},{"bufferView":3,"componentType":5123,"count":2802,"type":"SCALAR"}],"bufferViews":[{"buffer":0,"byteLength":22224,"byteOffset":0},{"buffer":0,"byteLength":22224,"byteOffset":22224},{"buffer":0,"byteLength":14816,"byteOffset":44448},{"buffer":0,"byteLength":5604,"byteOffset":59264}],"samplers":[{"magFilter":9729,"minFilter":9987}],"buffers":[{"byteLength":64868,"uri":"data:application/octet-stream;base64,"}]}